<svg xmlns="http://www.w3.org/2000/svg" xmlns:xlink="http://www.w3.org/1999/xlink" viewBox="0 0 476 476"><defs><style>.cls-1{fill:url(#Naamloos_verloop_16);}.cls-2{fill:url(#Naamloos_verloop_85);}.cls-3{fill:url(#Naamloos_verloop_86);}</style><linearGradient id="Naamloos_verloop_16" y1="238" x2="476" y2="238" gradientUnits="userSpaceOnUse"><stop offset="0.25" stop-color="#2459bc"/><stop offset="0.75" stop-color="#f51927"/></linearGradient><linearGradient id="Naamloos_verloop_85" x1="11.5" y1="238" x2="238.5" y2="238" gradientUnits="userSpaceOnUse"><stop offset="0" stop-color="#fff" stop-opacity="0"/><stop offset="0.07" stop-color="#fff" stop-opacity="0.05"/><stop offset="0.2" stop-color="#fff" stop-opacity="0.18"/><stop offset="0.37" stop-color="#fff" stop-opacity="0.4"/><stop offset="0.58" stop-color="#fff" stop-opacity="0.7"/><stop offset="0.77" stop-color="#fff"/></linearGradient><linearGradient id="Naamloos_verloop_86" x1="164.6" y1="362.6" x2="363.1" y2="164.1" gradientUnits="userSpaceOnUse"><stop offset="0" stop-color="#fff" stop-opacity="0"/><stop offset="0.17" stop-color="#fff" stop-opacity="0.19"/><stop offset="0.55" stop-color="#fff" stop-opacity="0.66"/><stop offset="0.81" stop-color="#fff"/></linearGradient></defs><title>Middel 1</title><g id="Laag_2" data-name="Laag 2"><g id="Laag_4" data-name="Laag 4"><circle class="cls-1" cx="238" cy="238" r="238"/><polygon class="cls-2" points="238.5 436.5 11.5 311.5 216.5 403.5 26.5 293.5 216.5 371.5 41.5 276.5 216.5 340.5 58.5 255.5 216.5 309.5 75.5 234.5 216.5 279.5 91.5 215.5 216.5 252.5 108.5 195.5 216.5 223.5 125.5 175.5 216.5 192.5 142.5 154.5 216.5 165.5 161.5 132.5 219.5 141.5 178.5 111.5 222.5 119.5 194.5 91.5 227.5 98.5 209.5 74.5 230.5 77.5 221.5 59.5 238.5 39.5 238.5 436.5"/><polygon class="cls-3" points="464.2 312.22 238.5 436.5 416.5 319.5 240.5 405.5 401.5 300.5 237.5 376.5 385.5 280.5 237.5 347.5 369.5 259.5 237.5 319.5 358.5 235.5 237.5 290.5 340.5 218.5 237.5 260.5 328.5 194.5 237.5 232.5 312.5 173.5 237.5 200.5 298.5 151.5 237.5 172.5 284.5 130.5 237.5 148.5 273.5 108.5 237.5 123.5 262.5 87.5 237.5 100.5 256.5 69.5 238.5 80.5 238.5 39.5 464.2 312.22"/></g></g></svg>